<mxfile host="app.diagrams.net" modified="2023-05-14T13:00:55.772Z" agent="Mozilla/5.0 (Windows NT 10.0; Win64; x64) AppleWebKit/537.36 (KHTML, like Gecko) Chrome/113.0.0.0 Safari/537.36 Edg/113.0.1774.42" etag="OF1PRIL9iXE62_RFyBFT" version="21.3.0" type="github">
  <diagram id="JMyDKwACiikPA5PDqxO_" name="第 1 页">
    <mxGraphModel dx="835" dy="478" grid="1" gridSize="10" guides="1" tooltips="1" connect="1" arrows="1" fold="1" page="1" pageScale="1" pageWidth="827" pageHeight="1169" math="0" shadow="0">
      <root>
        <mxCell id="0" />
        <mxCell id="1" parent="0" />
        <mxCell id="g7SeLuk7CauOoxri5W4V-1" value="系统" style="shape=umlActor;verticalLabelPosition=bottom;verticalAlign=top;html=1;" parent="1" vertex="1">
          <mxGeometry x="40" y="300" width="30" height="60" as="geometry" />
        </mxCell>
        <mxCell id="g7SeLuk7CauOoxri5W4V-2" value="获取图片数据" style="ellipse;whiteSpace=wrap;html=1;" parent="1" vertex="1">
          <mxGeometry x="190" y="180" width="140" height="50" as="geometry" />
        </mxCell>
        <mxCell id="g7SeLuk7CauOoxri5W4V-7" value="告警通知" style="ellipse;whiteSpace=wrap;html=1;" parent="1" vertex="1">
          <mxGeometry x="190" y="370" width="140" height="50" as="geometry" />
        </mxCell>
        <mxCell id="g7SeLuk7CauOoxri5W4V-8" value="结果展示" style="ellipse;whiteSpace=wrap;html=1;" parent="1" vertex="1">
          <mxGeometry x="190" y="460" width="140" height="50" as="geometry" />
        </mxCell>
        <mxCell id="g7SeLuk7CauOoxri5W4V-12" value="" style="endArrow=open;endFill=1;endSize=12;html=1;rounded=0;exitX=0.5;exitY=0.5;exitDx=0;exitDy=0;exitPerimeter=0;entryX=0;entryY=0.5;entryDx=0;entryDy=0;" parent="1" source="g7SeLuk7CauOoxri5W4V-1" target="g7SeLuk7CauOoxri5W4V-2" edge="1">
          <mxGeometry width="160" relative="1" as="geometry">
            <mxPoint x="80" y="430" as="sourcePoint" />
            <mxPoint x="240" y="430" as="targetPoint" />
          </mxGeometry>
        </mxCell>
        <mxCell id="g7SeLuk7CauOoxri5W4V-19" value="" style="endArrow=open;endFill=1;endSize=12;html=1;rounded=0;exitX=0.5;exitY=0.5;exitDx=0;exitDy=0;exitPerimeter=0;entryX=0;entryY=0.5;entryDx=0;entryDy=0;" parent="1" source="g7SeLuk7CauOoxri5W4V-1" target="g7SeLuk7CauOoxri5W4V-7" edge="1">
          <mxGeometry width="160" relative="1" as="geometry">
            <mxPoint x="65" y="335" as="sourcePoint" />
            <mxPoint x="190" y="205" as="targetPoint" />
          </mxGeometry>
        </mxCell>
        <mxCell id="g7SeLuk7CauOoxri5W4V-20" value="" style="endArrow=open;endFill=1;endSize=12;html=1;rounded=0;entryX=0;entryY=0.5;entryDx=0;entryDy=0;exitX=0.5;exitY=0.5;exitDx=0;exitDy=0;exitPerimeter=0;" parent="1" source="g7SeLuk7CauOoxri5W4V-1" target="g7SeLuk7CauOoxri5W4V-8" edge="1">
          <mxGeometry width="160" relative="1" as="geometry">
            <mxPoint x="60" y="330" as="sourcePoint" />
            <mxPoint x="245" y="225" as="targetPoint" />
          </mxGeometry>
        </mxCell>
        <mxCell id="u8QWw6zkIW7l7bdUOdDe-1" value="图像识别分析" style="ellipse;whiteSpace=wrap;html=1;" vertex="1" parent="1">
          <mxGeometry x="190" y="270" width="140" height="50" as="geometry" />
        </mxCell>
        <mxCell id="u8QWw6zkIW7l7bdUOdDe-2" value="" style="endArrow=open;endFill=1;endSize=12;html=1;rounded=0;exitX=0.5;exitY=0.5;exitDx=0;exitDy=0;exitPerimeter=0;entryX=0;entryY=0.5;entryDx=0;entryDy=0;" edge="1" parent="1" source="g7SeLuk7CauOoxri5W4V-1" target="u8QWw6zkIW7l7bdUOdDe-1">
          <mxGeometry width="160" relative="1" as="geometry">
            <mxPoint x="65" y="340" as="sourcePoint" />
            <mxPoint x="200" y="215" as="targetPoint" />
          </mxGeometry>
        </mxCell>
        <mxCell id="u8QWw6zkIW7l7bdUOdDe-3" value="图片预处理" style="ellipse;whiteSpace=wrap;html=1;" vertex="1" parent="1">
          <mxGeometry x="440" y="270" width="140" height="50" as="geometry" />
        </mxCell>
        <mxCell id="u8QWw6zkIW7l7bdUOdDe-4" value="Use" style="endArrow=open;endSize=12;dashed=1;html=1;rounded=0;exitX=1;exitY=0.5;exitDx=0;exitDy=0;entryX=0;entryY=0.5;entryDx=0;entryDy=0;" edge="1" parent="1" source="u8QWw6zkIW7l7bdUOdDe-1" target="u8QWw6zkIW7l7bdUOdDe-3">
          <mxGeometry width="160" relative="1" as="geometry">
            <mxPoint x="440" y="380" as="sourcePoint" />
            <mxPoint x="440" y="290" as="targetPoint" />
          </mxGeometry>
        </mxCell>
      </root>
    </mxGraphModel>
  </diagram>
</mxfile>
